<svg id="instagram_2_" data-name="instagram (2)" xmlns="http://www.w3.org/2000/svg" width="26.939" height="26.938" viewBox="0 0 26.939 26.938">
  <g id="Group_2848" data-name="Group 2848" transform="translate(0)">
    <g id="Group_2847" data-name="Group 2847">
      <path id="Path_18046" data-name="Path 18046" d="M18.52,0H8.418A8.419,8.419,0,0,0,0,8.418v10.1a8.419,8.419,0,0,0,8.418,8.418h10.1a8.419,8.419,0,0,0,8.418-8.418V8.418A8.419,8.419,0,0,0,18.52,0Zm5.893,18.52a5.9,5.9,0,0,1-5.893,5.893H8.418A5.9,5.9,0,0,1,2.525,18.52V8.418A5.9,5.9,0,0,1,8.418,2.525h10.1a5.9,5.9,0,0,1,5.893,5.893Z" transform="translate(0 0)" fill="#e3e3e3"/>
    </g>
  </g>
  <g id="Group_2850" data-name="Group 2850" transform="translate(6.735 6.734)">
    <g id="Group_2849" data-name="Group 2849">
      <path id="Path_18047" data-name="Path 18047" d="M134.735,128a6.735,6.735,0,1,0,6.735,6.735A6.735,6.735,0,0,0,134.735,128Zm0,10.944a4.209,4.209,0,1,1,4.209-4.209A4.215,4.215,0,0,1,134.735,138.944Z" transform="translate(-128 -128)" fill="#e3e3e3"/>
    </g>
  </g>
  <g id="Group_2852" data-name="Group 2852" transform="translate(19.812 5.332)">
    <g id="Group_2851" data-name="Group 2851">
      <circle id="Ellipse_75" data-name="Ellipse 75" cx="0.897" cy="0.897" r="0.897" fill="#e3e3e3"/>
    </g>
  </g>
</svg>
