<svg xmlns="http://www.w3.org/2000/svg" xmlns:xlink="http://www.w3.org/1999/xlink" width="237.033" height="237.033" viewBox="0 0 237.033 237.033">
  <defs>
    <filter id="_Compound_Path_" x="59.941" y="39.32" width="117.151" height="143.887" filterUnits="userSpaceOnUse">
      <feOffset input="SourceAlpha"/>
      <feGaussianBlur stdDeviation="10" result="blur"/>
      <feFlood flood-color="#95c93d" flood-opacity="0.102"/>
      <feComposite operator="in" in2="blur"/>
      <feComposite in="SourceGraphic"/>
    </filter>
  </defs>
  <g id="Layer_1" data-name="Layer 1" transform="translate(-42.871 -43.332)">
    <g id="_Clip_Group_" data-name="&lt;Clip Group&gt;" transform="translate(42.871 43.332)">
      <path id="_Compound_Path_2" data-name="&lt;Compound Path&gt;" d="M473.633,355.577A118.517,118.517,0,1,1,355.117,237.06,118.449,118.449,0,0,1,473.633,355.577ZM271.589,272.049a118.2,118.2,0,1,0,83.528-34.57A117.339,117.339,0,0,0,271.589,272.049Z" transform="translate(-236.6 -237.06)" fill="#95c93d" fill-rule="evenodd" opacity="0.15"/>
      <path id="_Compound_Path_3" data-name="&lt;Compound Path&gt;" d="M604.7,519.671a85.491,85.491,0,1,1-85.491-85.491A85.442,85.442,0,0,1,604.7,519.671ZM459.042,459.5a85.142,85.142,0,1,0,60.17-24.9A84.527,84.527,0,0,0,459.042,459.5Z" transform="translate(-400.695 -401.155)" fill="#95c93d" fill-rule="evenodd" opacity="0.4"/>
      <path id="_Compound_Path_4" data-name="&lt;Compound Path&gt;" d="M713.923,656.412a57.972,57.972,0,1,1-57.972-57.972A57.938,57.938,0,0,1,713.923,656.412Zm-115.524,0a57.553,57.553,0,1,0,57.553-57.553A57.617,57.617,0,0,0,598.4,656.412Z" transform="translate(-537.435 -537.895)" fill="#95c93d" fill-rule="evenodd"/>
    </g>
    <g id="_Group_" data-name="&lt;Group&gt;" transform="translate(107.019 77.734)">
      <rect id="Rectangle_17328" data-name="Rectangle 17328" width="108.825" height="164.688" transform="translate(0 0)" fill="#fff"/>
      <g transform="matrix(1, 0, 0, 1, -64.15, -34.4)" filter="url(#_Compound_Path_)">
        <path id="_Compound_Path_5" data-name="&lt;Compound Path&gt;" d="M793.331,628.131v46.622a5.264,5.264,0,0,1-5.265,5.264H741.445a5.264,5.264,0,0,1-5.265-5.264V628.131a5.264,5.264,0,0,1,5.265-5.264h5.324v-8.751a17.987,17.987,0,0,1,35.973,0v8.751h5.324A5.264,5.264,0,0,1,793.331,628.131Zm-24.684,26.136a7.748,7.748,0,1,0-7.783,0l-1.94,18.549h11.663Zm7.552-40.15a11.443,11.443,0,0,0-22.886,0v8.751H776.2Z" transform="translate(-646.24 -526.81)" fill="#95c93d" fill-rule="evenodd"/>
      </g>
    </g>
  </g>
</svg>
