<svg xmlns="http://www.w3.org/2000/svg" width="21.121" height="21.344" viewBox="0 0 21.121 21.344">
  <path id="XMLID_735_" d="M21.18,5.3h-.615V1.816A1.816,1.816,0,0,0,18.749,0H7.5A1.816,1.816,0,0,0,5.687,1.816V5.3H5.072A2.462,2.462,0,0,0,2.565,7.709V18.937a2.461,2.461,0,0,0,2.507,2.407H21.18a2.461,2.461,0,0,0,2.507-2.407V7.709A2.462,2.462,0,0,0,21.18,5.3ZM8.835,2.465H13.1a.7.7,0,0,1,0,1.409H8.835a.7.7,0,1,1,0-1.409Zm0,2.817h8.583a.7.7,0,1,1,0,1.409H8.835a.7.7,0,1,1,0-1.409Zm0,2.817h8.583a.7.7,0,1,1,0,1.409H8.835a.7.7,0,1,1,0-1.409ZM21.561,18.937c0,.15-.179.282-.381.282H5.072c-.2,0-.382-.132-.382-.282V9.194l7.285,6.151a.831.831,0,0,0,.535.2h1.23a.833.833,0,0,0,.536-.2l7.285-6.151Z" transform="translate(-2.565)" fill="#727272"/>
</svg>
