<svg id="snapchat" xmlns="http://www.w3.org/2000/svg" width="33.165" height="30.88" viewBox="0 0 33.165 30.88">
  <path id="Path_20429" data-name="Path 20429" d="M33.128,40.878a.572.572,0,0,0-.422-.357,8.82,8.82,0,0,1-5.511-3.493,7.323,7.323,0,0,1-1.463-3.377,4.217,4.217,0,0,1,1.546-.469,4.534,4.534,0,0,0,2.29-.846,1.886,1.886,0,0,0,.518-1.634,2.15,2.15,0,0,0-1.239-1.569c-.958-.479-2.573.143-3.623.66a9.15,9.15,0,1,0-17.283,0c-1.05-.517-2.665-1.139-3.623-.66A2.151,2.151,0,0,0,3.078,30.7,1.886,1.886,0,0,0,3.6,32.337a4.533,4.533,0,0,0,2.29.846,4.218,4.218,0,0,1,1.546.469,7.323,7.323,0,0,1-1.463,3.377A8.819,8.819,0,0,1,.458,40.521a.577.577,0,0,0-.345.9,6.782,6.782,0,0,0,4.615,2.5l.446,1.339a.578.578,0,0,0,.8.331c.02-.01,2.018-.978,3.431-.036l.426.287c1.667,1.126,3.951,2.669,6.753,2.669s5.086-1.542,6.753-2.669l.426-.287c1.413-.942,3.411.026,3.43.036a.578.578,0,0,0,.8-.331l.446-1.339a6.781,6.781,0,0,0,4.615-2.5A.571.571,0,0,0,33.128,40.878Z" transform="translate(-0.001 -17.636)" fill="#e3e3e3"/>
  <path id="Path_20430" data-name="Path 20430" d="M7.433,27.92a9.193,9.193,0,0,0,.508,3.008c-1.05-.517-2.665-1.139-3.623-.66a2.151,2.151,0,0,0-1.239,1.569A1.886,1.886,0,0,0,3.6,33.471a4.533,4.533,0,0,0,2.29.845,4.218,4.218,0,0,1,1.546.469A7.323,7.323,0,0,1,5.97,38.163,8.819,8.819,0,0,1,.459,41.655a.577.577,0,0,0-.345.9,6.964,6.964,0,0,0,1.82,1.588c4.76-2.179,8.359-4.545,8.359-10.509,0-3.431-1.144-4.575,0-8.578.728-2.548,3.31-4.865,5.09-6.212A9.164,9.164,0,0,0,7.433,27.92Z" transform="translate(-0.002 -18.77)" fill="#e3e3e3"/>
</svg>
