<svg id="telegram" xmlns="http://www.w3.org/2000/svg" width="27.998" height="26.362" viewBox="0 0 27.998 26.362">
  <path id="Path_20431" data-name="Path 20431" d="M130.931,299.821l-5.479,5.463a.848.848,0,0,1-.82.213.92.92,0,0,1-.558-.64v-.016l-1.575-9.416,1.28-.968,3.133,1.837,4.019,2.362A.842.842,0,0,1,130.931,299.821Z" transform="translate(-115.8 -279.173)" fill="#e3e3e3"/>
  <path id="Path_20432" data-name="Path 20432" d="M27.982,15.941,23.005,40.657a.8.8,0,0,1-.509.591.643.643,0,0,1-.3.066.855.855,0,0,1-.476-.148l-11.483-8.2c-7.319-3.625-3.5-1.72-9.783-4.856a.824.824,0,0,1,.033-1.493L26.85,15.022a.813.813,0,0,1,.837.115l.115.115A.814.814,0,0,1,27.982,15.941Z" transform="translate(0 -14.956)" fill="#e3e3e3"/>
  <path id="Path_20433" data-name="Path 20433" d="M143.6,20.364,126.913,37.19l-.869.886-1.411,8.317a.92.92,0,0,1-.558-.64v-.016L122.5,36.32l1.28-.968Z" transform="translate(-115.801 -20.068)" fill="#e3e3e3"/>
</svg>
