<svg xmlns="http://www.w3.org/2000/svg" width="27.044" height="21.973" viewBox="0 0 27.044 21.973">
  <path id="twitter_5_" data-name="twitter (5)" d="M27.044,50.6a11.56,11.56,0,0,1-3.195.876,5.513,5.513,0,0,0,2.439-3.064,11.08,11.08,0,0,1-3.516,1.342,5.544,5.544,0,0,0-9.591,3.791,5.709,5.709,0,0,0,.128,1.264,15.693,15.693,0,0,1-11.428-5.8,5.546,5.546,0,0,0,1.7,7.41,5.475,5.475,0,0,1-2.5-.683V55.8a5.57,5.57,0,0,0,4.442,5.448,5.534,5.534,0,0,1-1.454.183,4.9,4.9,0,0,1-1.05-.095A5.6,5.6,0,0,0,8.2,65.2a11.141,11.141,0,0,1-6.874,2.365A10.385,10.385,0,0,1,0,67.485a15.609,15.609,0,0,0,8.505,2.488A15.672,15.672,0,0,0,24.286,54.2c0-.245-.008-.482-.02-.717A11.061,11.061,0,0,0,27.044,50.6Z" transform="translate(0 -48)" fill="#95c93d"/>
</svg>
