<svg id="youtube-logotype" xmlns="http://www.w3.org/2000/svg" width="27.36" height="32.411" viewBox="0 0 27.36 32.411">
  <g id="Group_2846" data-name="Group 2846" transform="translate(0)">
    <path id="Path_18040" data-name="Path 18040" d="M33.954,40.393A3.456,3.456,0,0,0,31,37.7a91.922,91.922,0,0,0-10.244-.379,91.947,91.947,0,0,0-10.246.379A3.455,3.455,0,0,0,7.55,40.393a29.3,29.3,0,0,0-.483,6.468,29.289,29.289,0,0,0,.477,6.467A3.455,3.455,0,0,0,10.5,56.016a91.927,91.927,0,0,0,10.245.379,91.862,91.862,0,0,0,10.246-.379,3.456,3.456,0,0,0,2.957-2.688,29.311,29.311,0,0,0,.479-6.467A29.332,29.332,0,0,0,33.954,40.393ZM14.871,42h-1.98V52.521H11.051V42H9.107V40.275h5.764Zm5,10.523H18.212v-1a2.65,2.65,0,0,1-1.889,1.121,1.014,1.014,0,0,1-1.065-.678,4.657,4.657,0,0,1-.146-1.357V43.4h1.653v6.718a5.148,5.148,0,0,0,.015.643c.04.257.165.387.387.387.332,0,.678-.256,1.045-.774V43.4h1.655v9.125Zm6.281-2.739a7.289,7.289,0,0,1-.167,1.839,1.309,1.309,0,0,1-1.321,1.025,2.253,2.253,0,0,1-1.709-1.009v.884H21.3V40.275h1.653v4a2.24,2.24,0,0,1,1.709-.99,1.308,1.308,0,0,1,1.321,1.029,7.007,7.007,0,0,1,.167,1.834Zm6.24-1.522H29.081v1.617c0,.845.276,1.266.845,1.266a.71.71,0,0,0,.738-.663,10.4,10.4,0,0,0,.037-1.12h1.687V49.6c0,.533-.02.9-.035,1.065a2.356,2.356,0,0,1-.386.99,2.288,2.288,0,0,1-2,.989,2.368,2.368,0,0,1-2-.934,3.534,3.534,0,0,1-.531-2.146v-3.2a3.551,3.551,0,0,1,.511-2.15,2.35,2.35,0,0,1,1.98-.935,2.3,2.3,0,0,1,1.951.935,3.586,3.586,0,0,1,.512,2.15V48.26Z" transform="translate(-7.067 -23.984)" fill="#e3e3e3"/>
    <path id="Path_18041" data-name="Path 18041" d="M69.487,58.163q-.829,0-.83,1.266v.844H70.31v-.844C70.31,58.585,70.034,58.163,69.487,58.163Z" transform="translate(-46.642 -37.373)" fill="#e3e3e3"/>
    <path id="Path_18042" data-name="Path 18042" d="M52.33,58.163a1.185,1.185,0,0,0-.825.4v5.561a1.179,1.179,0,0,0,.825.407c.477,0,.719-.407.719-1.231V59.408C53.049,58.585,52.806,58.163,52.33,58.163Z" transform="translate(-35.621 -37.373)" fill="#e3e3e3"/>
    <path id="Path_18043" data-name="Path 18043" d="M54.195,18.168A2.684,2.684,0,0,0,56.1,17.036v1.006h1.671V8.82H56.1v7.048c-.37.523-.721.782-1.056.782-.224,0-.355-.132-.392-.391a3.874,3.874,0,0,1-.02-.649V8.82H52.97v7.292a4.659,4.659,0,0,0,.148,1.371A1.026,1.026,0,0,0,54.195,18.168Z" transform="translate(-36.562 -5.667)" fill="#e3e3e3"/>
    <path id="Path_18044" data-name="Path 18044" d="M19.678,7.363v5.012h1.853V7.363L23.76,0H21.886L20.622,4.859,19.307,0h-1.95c.391,1.147.8,2.3,1.188,3.448A30.482,30.482,0,0,1,19.678,7.363Z" transform="translate(-13.679)" fill="#e3e3e3"/>
    <path id="Path_18045" data-name="Path 18045" d="M37.781,17.968a2.278,2.278,0,0,0,1.949-.944,3.607,3.607,0,0,0,.519-2.169V11.626a3.614,3.614,0,0,0-.519-2.172,2.478,2.478,0,0,0-3.895,0,3.584,3.584,0,0,0-.523,2.172v3.229a3.575,3.575,0,0,0,.523,2.169A2.277,2.277,0,0,0,37.781,17.968Zm-.8-6.677c0-.853.259-1.279.8-1.279s.8.425.8,1.279V15.17c0,.853-.258,1.28-.8,1.28s-.8-.427-.8-1.28Z" transform="translate(-25.217 -5.467)" fill="#e3e3e3"/>
  </g>
</svg>
